<mxfile host="app.diagrams.net" modified="2024-06-26T12:47:37.884Z" agent="Mozilla/5.0 (Windows NT 10.0; Win64; x64) AppleWebKit/537.36 (KHTML, like Gecko) Chrome/121.0.0.0 Safari/537.36" etag="2dnv4e5_hd2ehfDBNbxm" version="24.6.3" type="device">
  <diagram name="PÃ¡gina-1" id="iG9SHUaQY-g6oaQ7vYcc">
    <mxGraphModel dx="1434" dy="772" grid="1" gridSize="10" guides="1" tooltips="1" connect="1" arrows="1" fold="1" page="1" pageScale="1" pageWidth="827" pageHeight="1169" math="0" shadow="0">
      <root>
        <mxCell id="0" />
        <mxCell id="1" parent="0" />
      </root>
    </mxGraphModel>
  </diagram>
</mxfile>
